<?xml version="1.0" encoding="iso-8859-1"?>
<!DOCTYPE svg PUBLIC "-//W3C//DTD SVG 1.1//EN" "http://www.w3.org/Graphics/SVG/1.1/DTD/svg11.dtd">
<svg xmlns="http://www.w3.org/2000/svg" xmlns:xlink="http://www.w3.org/1999/xlink" version="1.1" viewBox="0 0 458 458" enable-background="new 0 0 458 458" width="512px" height="512px">
  <path d="m358.349,220.079v-150.404c0-18.609-7.246-36.104-20.402-49.26-13.164-13.165-30.663-20.415-49.272-20.415-38.419,0-69.675,31.256-69.675,69.675v318.651c0,13.267-5.166,25.739-14.545,35.119-9.387,9.387-21.863,14.556-35.13,14.556-27.391,0-49.674-22.284-49.674-49.675v-150.405c21.17-4.599 37.079-23.472 37.079-46v-83.429c0-4.018-2.375-7.473-5.793-9.063v-19.905c0-5.523-4.477-10-10-10h-62.572c-5.523,0-10,4.477-10,10v19.905c-3.419,1.589-5.794,5.045-5.794,9.063v83.429c0,22.528 15.909,41.401 37.08,46v150.405c0,38.419 31.256,69.675 69.674,69.675 18.609,0 36.108-7.25 49.272-20.415 13.157-13.157 20.403-30.651 20.403-49.261v-318.65c0-27.391 22.284-49.675 49.675-49.675 13.267,0 25.743,5.169 35.129,14.556 9.379,9.379 14.545,21.851 14.545,35.118v150.405c-21.17,4.599-37.079,23.472-37.079,46v83.428c0,4.018 2.375,7.473 5.793,9.063v19.905c0,5.523 4.477,10 10,10h62.571c5.523,0 10-4.477 10-10v-19.905c3.419-1.589 5.794-5.045 5.794-9.063v-83.427c0.001-22.529-15.908-41.402-37.079-46.001zm-269.984-130.555h42.571v8.968h-42.571v-8.968zm-5.794,102.397v-73.429h54.159v73.429c0,14.932-12.147,27.079-27.079,27.079s-27.08-12.147-27.08-27.079zm265.778,47.079c14.932,0 27.08,12.148 27.08,27.08v73.428h-54.159v-73.428c0-14.932 12.147-27.08 27.079-27.08zm21.286,129.476h-42.571v-8.968h42.571v8.968z" fill="#FFFFFF"/>
</svg>
