<?xml version="1.0" encoding="iso-8859-1"?>
<!-- Generator: Adobe Illustrator 19.0.0, SVG Export Plug-In . SVG Version: 6.00 Build 0)  -->
<svg xmlns="http://www.w3.org/2000/svg" xmlns:xlink="http://www.w3.org/1999/xlink" version="1.1" id="Capa_1" x="0px" y="0px" viewBox="0 0 60 60" style="enable-background:new 0 0 60 60;" xml:space="preserve" width="512px" height="512px">
<g>
	<path d="M54,58h-3v-4h-5V43.778c0-2.7-1.342-5.208-3.589-6.706L31.803,30l10.608-7.072C44.658,21.43,46,18.922,46,16.222V6h5V2h3   c0.552,0,1-0.447,1-1s-0.448-1-1-1h-3h-1H10H9H6C5.448,0,5,0.447,5,1s0.448,1,1,1h3v4h5v10.222c0,2.7,1.342,5.208,3.589,6.706   L28.197,30l-10.608,7.072C15.342,38.57,14,41.078,14,43.778V54H9v4H6c-0.552,0-1,0.447-1,1s0.448,1,1,1h3h1h40h1h3   c0.552,0,1-0.447,1-1S54.552,58,54,58z M11,4V2h38v2h-3H14H11z M18.698,21.264C17.009,20.137,16,18.252,16,16.222V6h28v10.222   c0,2.03-1.009,3.915-2.698,5.042L30,28.798L18.698,21.264z M16,43.778c0-2.03,1.009-3.915,2.698-5.042L30,31.202l11.302,7.534   C42.991,39.863,44,41.748,44,43.778V54H16V43.778z M11,56h3h32h3v2H11V56z" fill="#FFFFFF"/>
	<path d="M20.917,17.936C20.343,17.553,20,16.912,20,16.222V14c0-0.553-0.448-1-1-1s-1,0.447-1,1v2.222   c0,1.361,0.676,2.624,1.808,3.378l4.638,3.092c0.17,0.113,0.363,0.168,0.554,0.168c0.323,0,0.64-0.156,0.833-0.445   c0.306-0.46,0.182-1.08-0.277-1.387L20.917,17.936z" fill="#FFFFFF"/>
	<path d="M40.192,41.26l-4.638-3.092c-0.46-0.307-1.08-0.183-1.387,0.277c-0.306,0.46-0.182,1.08,0.277,1.387l4.638,3.092   C39.657,43.307,40,43.947,40,44.638v2.222c0,0.553,0.448,1,1,1s1-0.447,1-1v-2.222C42,43.276,41.324,42.014,40.192,41.26z" fill="#FFFFFF"/>
</g>
<g>
</g>
<g>
</g>
<g>
</g>
<g>
</g>
<g>
</g>
<g>
</g>
<g>
</g>
<g>
</g>
<g>
</g>
<g>
</g>
<g>
</g>
<g>
</g>
<g>
</g>
<g>
</g>
<g>
</g>
</svg>
