<?xml version="1.0" encoding="iso-8859-1"?>
<!-- Generator: Adobe Illustrator 19.0.0, SVG Export Plug-In . SVG Version: 6.00 Build 0)  -->
<svg xmlns="http://www.w3.org/2000/svg" xmlns:xlink="http://www.w3.org/1999/xlink" version="1.1" id="Layer_1" x="0px" y="0px" viewBox="0 0 512 512" style="enable-background:new 0 0 512 512;" xml:space="preserve" width="512px" height="512px">
<g>
	<g>
		<path d="M493.297,159.693c-12.477-30.878-31.231-59.828-56.199-84.792c-24.964-24.967-53.914-43.722-84.792-56.199    C321.426,6.222,288.617,0,255.824,0c-32.748,0-65.497,6.249-96.315,18.744c-30.814,12.49-59.695,31.242-84.607,56.158    c-24.915,24.911-43.668,53.792-56.158,84.607C6.25,190.324,0.001,223.072,0.001,255.821c0,32.795,6.222,65.604,18.701,96.485    c12.477,30.878,31.231,59.829,56.199,84.793c24.964,24.967,53.914,43.722,84.792,56.199c30.882,12.48,63.69,18.701,96.484,18.703    c32.748,0,65.497-6.249,96.315-18.743c30.814-12.49,59.695-31.242,84.607-56.158c24.915-24.912,43.668-53.793,56.158-84.608    c12.494-30.817,18.743-63.565,18.744-96.315C511.999,223.383,505.778,190.575,493.297,159.693z M461.612,339.661    c-10.821,26.683-27.018,51.648-48.659,73.292c-21.643,21.64-46.608,37.837-73.291,48.659    c-26.679,10.818-55.078,16.241-83.484,16.241c-28.477,0-56.947-5.406-83.688-16.214c-26.744-10.813-51.76-27.008-73.441-48.685    c-21.679-21.682-37.874-46.697-48.685-73.442c-10.808-26.741-16.214-55.212-16.213-83.689    c-0.002-28.406,5.422-56.804,16.239-83.483c10.821-26.683,27.018-51.648,48.659-73.291c21.643-21.64,46.608-37.837,73.292-48.659    c26.679-10.818,55.078-16.241,83.484-16.241c28.477,0,56.947,5.405,83.688,16.214c26.744,10.813,51.76,27.007,73.441,48.685    c21.679,21.682,37.873,46.697,48.685,73.441c10.808,26.741,16.214,55.211,16.214,83.688    C477.853,284.583,472.43,312.981,461.612,339.661z" fill="#FFFFFF"/>
	</g>
</g>
<g>
	<g>
		<path d="M356.24,183.605c9.227,0,16.707-7.48,16.707-16.707v-33.412c0-4.399-1.782-8.703-4.893-11.814s-7.414-4.893-11.814-4.893    H155.761c-6.445,0-12.337,3.728-15.097,9.552c-2.76,5.825-1.915,12.745,2.167,17.734L234.415,256l-91.583,111.937    c-4.082,4.987-4.927,11.909-2.167,17.734c2.76,5.825,8.652,9.552,15.097,9.552H356.24c4.399,0,8.702-1.782,11.814-4.893    s4.893-7.414,4.893-11.814v-33.413c0-9.227-7.48-16.707-16.707-16.707s-16.707,7.48-16.707,16.707v16.707H191.016l77.915-95.229    c5.047-6.168,5.047-14.991,0-21.158l-77.915-95.229h148.517v16.706C339.534,176.124,347.014,183.605,356.24,183.605z" fill="#FFFFFF"/>
	</g>
</g>
<g>
</g>
<g>
</g>
<g>
</g>
<g>
</g>
<g>
</g>
<g>
</g>
<g>
</g>
<g>
</g>
<g>
</g>
<g>
</g>
<g>
</g>
<g>
</g>
<g>
</g>
<g>
</g>
<g>
</g>
</svg>
